[Header]
FileType HTR
DataType HTRS
FileVersion 1
NumSegments 64
NumFrames 4
DataFrameRate 30
EulerRotationOrder ZYX
CalibrationUnits mm
RotationUnits Degrees
GlobalAxisofGravity Y
BoneLengthAxis Y
ScaleFactor 1.0
[SegmentNames&Hierarchy]
Hips	GLOBAL
Spine	Hips
Spine1	Spine
Spine2	Spine1
Neck	Spine2
Head	Neck
LeftEye	Head
RightEye	Head
LeftShoulder	Spine2
LeftArm	LeftShoulder
LeftForeArm	LeftArm
LeftHand	LeftForeArm
LeftHandThumb1	LeftHand
LeftHandThumb2	LeftHandThumb1
LeftHandThumb3	LeftHandThumb2
LeftHandThumb4	LeftHandThumb3
LeftHandIndex1	LeftHand
LeftHandIndex2	LeftHandIndex1
LeftHandIndex3	LeftHandIndex2
LeftHandIndex4	LeftHandIndex3
LeftHandMiddle1	LeftHand
LeftHandMiddle2	LeftHandMiddle1
LeftHandMiddle3	LeftHandMiddle2
LeftHandMiddle4	LeftHandMiddle3
LeftHandRing1	LeftHand
LeftHandRing2	LeftHandRing1
LeftHandRing3	LeftHandRing2
LeftHandRing4	LeftHandRing3
LeftHandPinky1	LeftHand
LeftHandPinky2	LeftHandPinky1
LeftHandPinky3	LeftHandPinky2
LeftHandPinky4	LeftHandPinky3
RightShoulder	Spine2
RightArm	RightShoulder
RightForeArm	RightArm
RightHand	RightForeArm
RightHandPinky1	RightHand
RightHandPinky2	RightHandPinky1
RightHandPinky3	RightHandPinky2
RightHandPinky4	RightHandPinky3
RightHandRing1	RightHand
RightHandRing2	RightHandRing1
RightHandRing3	RightHandRing2
RightHandRing4	RightHandRing3
RightHandMiddle1	RightHand
RightHandMiddle2	RightHandMiddle1
RightHandMiddle3	RightHandMiddle2
RightHandMiddle4	RightHandMiddle3
RightHandIndex1	RightHand
RightHandIndex2	RightHandIndex1
RightHandIndex3	RightHandIndex2
RightHandIndex4	RightHandIndex3
RightHandThumb1	RightHand
RightHandThumb2	RightHandThumb1
RightHandThumb3	RightHandThumb2
RightHandThumb4	RightHandThumb3
LeftUpLeg	Hips
LeftLeg	LeftUpLeg
LeftFoot	LeftLeg
LeftToeBase	LeftFoot
RightUpLeg	Hips
RightLeg	RightUpLeg
RightFoot	RightLeg
RightToeBase	RightFoot
[BasePosition]
Hips	0	0	0	0	0	0	1
Spine	0	0	0	0	0	0	1
Spine1	0	0	0	0	0	0	1
Spine2	0	0	0	0	0	0	1
Neck	0	0	0	0	0	0	1
Head	0	0	0	0	0	0	1
LeftEye	0	0	0	0	0	0	1
RightEye	0	0	0	0	0	0	1
LeftShoulder	0	0	0	0	0	0	1
LeftArm	0	0	0	0	0	0	1
LeftForeArm	0	0	0	0	0	0	1
LeftHand	0	0	0	0	0	0	1
LeftHandThumb1	0	0	0	0	0	0	1
LeftHandThumb2	0	0	0	0	0	0	1
LeftHandThumb3	0	0	0	0	0	0	1
LeftHandThumb4	0	0	0	0	0	0	1
LeftHandIndex1	0	0	0	0	0	0	1
LeftHandIndex2	0	0	0	0	0	0	1
LeftHandIndex3	0	0	0	0	0	0	1
LeftHandIndex4	0	0	0	0	0	0	1
LeftHandMiddle1	0	0	0	0	0	0	1
LeftHandMiddle2	0	0	0	0	0	0	1
LeftHandMiddle3	0	0	0	0	0	0	1
LeftHandMiddle4	0	0	0	0	0	0	1
LeftHandRing1	0	0	0	0	0	0	1
LeftHandRing2	0	0	0	0	0	0	1
LeftHandRing3	0	0	0	0	0	0	1
LeftHandRing4	0	0	0	0	0	0	1
LeftHandPinky1	0	0	0	0	0	0	1
LeftHandPinky2	0	0	0	0	0	0	1
LeftHandPinky3	0	0	0	0	0	0	1
LeftHandPinky4	0	0	0	0	0	0	1
RightShoulder	0	0	0	0	0	0	1
RightArm	0	0	0	0	0	0	1
RightForeArm	0	0	0	0	0	0	1
RightHand	0	0	0	0	0	0	1
RightHandPinky1	0	0	0	0	0	0	1
RightHandPinky2	0	0	0	0	0	0	1
RightHandPinky3	0	0	0	0	0	0	1
RightHandPinky4	0	0	0	0	0	0	1
RightHandRing1	0	0	0	0	0	0	1
RightHandRing2	0	0	0	0	0	0	1
RightHandRing3	0	0	0	0	0	0	1
RightHandRing4	0	0	0	0	0	0	1
RightHandMiddle1	0	0	0	0	0	0	1
RightHandMiddle2	0	0	0	0	0	0	1
RightHandMiddle3	0	0	0	0	0	0	1
RightHandMiddle4	0	0	0	0	0	0	1
RightHandIndex1	0	0	0	0	0	0	1
RightHandIndex2	0	0	0	0	0	0	1
RightHandIndex3	0	0	0	0	0	0	1
RightHandIndex4	0	0	0	0	0	0	1
RightHandThumb1	0	0	0	0	0	0	1
RightHandThumb2	0	0	0	0	0	0	1
RightHandThumb3	0	0	0	0	0	0	1
RightHandThumb4	0	0	0	0	0	0	1
LeftUpLeg	0	0	0	0	0	0	1
LeftLeg	0	0	0	0	0	0	1
LeftFoot	0	0	0	0	0	0	1
LeftToeBase	0	0	0	0	0	0	1
RightUpLeg	0	0	0	0	0	0	1
RightLeg	0	0	0	0	0	0	1
RightFoot	0	0	0	0	0	0	1
RightToeBase	0	0	0	0	0	0	1
[Hips]
23	-23.05194664	950.5870972	-173.0818481	-0.4533053935	-21.88875008	4.125662804	1.0
24	-25.05062103	989.496521	-184.9732666	-0.4036017358	-19.58778381	4.1644063	1.0
25	-25.8750515	1022.455383	-196.2467957	-0.3756572306	-18.21985245	4.125989437	1.0
26	-25.24058914	1045.282715	-206.1911163	-0.1323388666	-17.36014557	4.130668163	1.0
[Spine]
23	0	101.8159943	1.315000057	2.626224279	0.4227375388	-0.5379351377	1.0
24	0	101.8159943	1.315000057	2.628314734	0.3146666884	-0.6277769804	1.0
25	0	101.8159943	1.315000057	2.74100256	0.2808608115	-0.7558869123	1.0
26	0	101.8159943	1.315000057	2.78572464	0.2430621833	-0.7305580378	1.0
[Spine1]
23	0	100.8349991	-10.00800037	5.254141808	1.066709995	0.4455917776	1.0
24	0	100.8349991	-10.00800037	5.255505085	0.7583992481	-0.1583029032	1.0
25	0	100.8349991	-10.00800037	5.479553223	0.6078557372	-0.8139635324	1.0
26	0	100.8349991	-10.00800037	5.568988323	0.4949110448	-1.2859447	1.0
[Spine2]
23	0	91	-13.73399925	5.254142284	1.066709161	0.4455915093	1.0
24	0	91	-13.73399925	5.255505562	0.7584016323	-0.1583041549	1.0
25	0	91	-13.73399925	5.479553223	0.6078566313	-0.8139629364	1.0
26	0	91	-13.73399925	5.568993092	0.494905293	-1.285945773	1.0
[Neck]
23	0	166.7169952	-25.16200066	12.41910362	2.703150034	-0.2993837595	1.0
24	0	166.7169952	-25.16200066	13.22962093	2.302603483	0.4622874856	1.0
25	0	166.7169952	-25.16200066	13.73150539	1.943085551	1.132884264	1.0
26	0	166.7169952	-25.16200066	14.16915894	1.816167355	1.188627124	1.0
[Head]
23	0	96.17900085	16.84999847	-9.901389122	16.36304092	-7.378334045	1.0
24	0	96.17900085	16.84999847	-8.620234489	15.15296364	-5.870945454	1.0
25	0	96.17900085	16.84999847	-8.669042587	13.90919018	-4.607964039	1.0
26	0	96.17900085	16.84999847	-9.289429665	12.92008209	-4.069591045	1.0
[LeftEye]
23	30.6760006	64.09500122	92.83599854	0	0	0	1.0
24	30.6760006	64.09500122	92.83599854	0	0	0	1.0
25	30.6760006	64.09500122	92.83599854	0	0	0	1.0
26	30.6760006	64.09500122	92.83599854	0	0	0	1.0
[RightEye]
23	-30.6760006	64.09500122	92.83499908	0	0	0	1.0
24	-30.6760006	64.09500122	92.83499908	0	0	0	1.0
25	-30.6760006	64.09500122	92.83499908	0	0	0	1.0
26	-30.6760006	64.09500122	92.83499908	0	0	0	1.0
[LeftShoulder]
23	45.70400238	109.4599991	-26.28000069	-0.2189227194	-18.72646523	1.668013334	1.0
24	45.70400238	109.4599991	-26.28000069	-1.010340333	-17.46529579	4.793928623	1.0
25	45.70400238	109.4599991	-26.28000069	-1.571310043	-16.01814461	7.390676975	1.0
26	45.70400238	109.4599991	-26.28000069	-1.600355148	-14.38678455	8.138724327	1.0
[LeftArm]
23	105.923996	-5.24600029	-22.32099915	-3.381531715	-13.77968502	-40.33712769	1.0
24	105.923996	-5.24600029	-22.32099915	-8.291703224	-21.97211075	-36.58021545	1.0
25	105.923996	-5.24600029	-22.32099915	-8.782842636	-25.56796455	-36.53903961	1.0
26	105.923996	-5.24600029	-22.32099915	-3.169366598	-22.89058113	-40.77949142	1.0
[LeftForeArm]
23	278.414978	-0.0009999999311	0	-183.0986938	-67.88825989	181.2501678	1.0
24	278.414978	-0.0009999999311	0	-183.0200653	-66.26331329	180.849884	1.0
25	278.414978	-0.0009999999311	0	-183.1060028	-66.80185699	180.8188782	1.0
26	278.414978	-0.0009999999311	0	-183.5518951	-69.58692169	181.330719	1.0
[LeftHand]
23	283.2879944	0	0	23.42041779	2.826220751	14.36297417	1.0
24	283.2879944	0	0	22.32264519	9.967387199	12.70622253	1.0
25	283.2879944	0	0	20.21191788	13.38029289	14.31482506	1.0
26	283.2879944	0	0	17.13748169	10.50785637	16.73344421	1.0
[LeftHandThumb1]
23	24.6609993	-15.75	26.8239994	-3.687559605	3.812701225	11.52026272	1.0
24	24.6609993	-15.75	26.8239994	-2.533133507	5.525673866	11.81993866	1.0
25	24.6609993	-15.75	26.8239994	-1.534814596	6.969382286	12.12978172	1.0
26	24.6609993	-15.75	26.8239994	-0.8392897844	7.910008907	12.38377857	1.0
[LeftHandThumb2]
23	32.29800034	-18.64699936	18.64699936	3.565760374	12.75075531	5.815228939	1.0
24	32.29800034	-18.64699936	18.64699936	3.867562056	15.25319004	7.467538834	1.0
25	32.29800034	-18.64699936	18.64699936	4.123019218	17.37364578	8.85362339	1.0
26	32.29800034	-18.64699936	18.64699936	4.296969891	18.78281212	9.744682312	1.0
[LeftHandThumb3]
23	26.52600098	-15.31499958	15.31499958	3.601811159e-06	-8.438974328e-05	-6.943767221e-05	1.0
24	26.52600098	-15.31499958	15.31499958	3.601811159e-06	-8.438974328e-05	-6.943767221e-05	1.0
25	26.52600098	-15.31499958	15.31499958	3.601811159e-06	-8.438974328e-05	-6.943767221e-05	1.0
26	26.52600098	-15.31499958	15.31499958	3.601811159e-06	-8.438974328e-05	-6.943767221e-05	1.0
[LeftHandThumb4]
23	19.54599953	-11.28499985	11.28499985	0	0	0	1.0
24	19.54599953	-11.28499985	11.28499985	0	0	0	1.0
25	19.54599953	-11.28499985	11.28499985	0	0	0	1.0
26	19.54599953	-11.28499985	11.28499985	0	0	0	1.0
[LeftHandIndex1]
23	91.09299469	-5.170999527	22.60099792	-0.1518550068	-1.509173155	-12.24707794	1.0
24	91.09299469	-5.170999527	22.60099792	-0.2450158447	-1.809940457	-13.68739414	1.0
25	91.09299469	-5.170999527	22.60099792	-0.3212939203	-2.067515612	-14.90967369	1.0
26	91.09299469	-5.170999527	22.60099792	-0.370351404	-2.240413666	-15.72404957	1.0
[LeftHandIndex2]
23	36.76399994	0	0	-0.8390764594	-0.9321346283	-29.58916092	1.0
24	36.76399994	0	0	-1.008992314	-1.644504428	-34.72342682	1.0
25	36.76399994	0	0	-1.104134083	-2.25963068	-39.0823555	1.0
26	36.76399994	0	0	-1.138813615	-2.673222303	-41.98823547	1.0
[LeftHandIndex3]
23	28.83100128	0	0	-1.432096042e-06	3.907105395e-07	1.552835329e-06	1.0
24	28.83100128	0	0	-1.432096042e-06	3.907105395e-07	1.552835329e-06	1.0
25	28.83100128	0	0	-1.432096042e-06	3.907105395e-07	1.552835329e-06	1.0
26	28.83100128	0	0	-1.432096042e-06	3.907105395e-07	1.552835329e-06	1.0
[LeftHandIndex4]
23	23.92700005	0	0	0	0	0	1.0
24	23.92700005	0	0	0	0	0	1.0
25	23.92700005	0	0	0	0	0	1.0
26	23.92700005	0	0	0	0	0	1.0
[LeftHandMiddle1]
23	95.33399963	0	0	-0.9329528809	-0.4374557137	-21.42852402	1.0
24	95.33399963	0	0	-1.068273664	-0.6942051649	-23.61565399	1.0
25	95.33399963	0	0	-1.175679326	-0.9160622358	-25.47218704	1.0
26	95.33399963	0	0	-1.242879987	-1.066021085	-26.70941925	1.0
[LeftHandMiddle2]
23	36.98199844	0	0	-0.6234961152	-2.373341799	-27.71406364	1.0
24	36.98199844	0	0	-0.6882565022	-3.034245968	-33.15834808	1.0
25	36.98199844	0	0	-0.6950336099	-3.598676205	-37.78268051	1.0
26	36.98199844	0	0	-0.6716401577	-3.974350691	-40.86663818	1.0
[LeftHandMiddle3]
23	29.50900078	0	0	0	-3.180554719e-15	-7.951386796e-16	1.0
24	29.50900078	0	0	0	-3.180554719e-15	-7.951386796e-16	1.0
25	29.50900078	0	0	0	-3.180554719e-15	-7.951386796e-16	1.0
26	29.50900078	0	0	0	-3.180554719e-15	-7.951386796e-16	1.0
[LeftHandMiddle4]
23	28.3390007	0	0	0	0	0	1.0
24	28.3390007	0	0	0	0	0	1.0
25	28.3390007	0	0	0	0	0	1.0
26	28.3390007	0	0	0	0	0	1.0
[LeftHandRing1]
23	91.04499817	-0.4390000105	-18.65100098	-3.073600531	4.978312492	-32.76944733	1.0
24	91.04499817	-0.4390000105	-18.65100098	-3.135453463	4.588281155	-35.14138794	1.0
25	91.04499817	-0.4390000105	-18.65100098	-3.178473234	4.254405975	-37.15391922	1.0
26	91.04499817	-0.4390000105	-18.65100098	-3.2015028	4.030526638	-38.49462509	1.0
[LeftHandRing2]
23	31.54000092	0	0	2.008450508	-2.61731863	-36.66667938	1.0
24	31.54000092	0	0	2.463018417	-2.739631176	-42.13249969	1.0
25	31.54000092	0	0	2.856948376	-2.810099602	-46.77410126	1.0
26	31.54000092	0	0	3.122419596	-2.837450266	-49.86821365	1.0
[LeftHandRing3]
23	29.37700081	0	0	1.590277359e-15	3.180554719e-15	-7.951386796e-16	1.0
24	29.37700081	0	0	1.590277359e-15	3.180554719e-15	-7.951386796e-16	1.0
25	29.37700081	0	0	1.590277359e-15	3.180554719e-15	-7.951386796e-16	1.0
26	29.37700081	0	0	1.590277359e-15	3.180554719e-15	-7.951386796e-16	1.0
[LeftHandRing4]
23	26.47500038	0	0	0	0	0	1.0
24	26.47500038	0	0	0	0	0	1.0
25	26.47500038	0	0	0	0	0	1.0
26	26.47500038	0	0	0	0	0	1.0
[LeftHandPinky1]
23	80.77799988	-4.887000084	-38.06099701	-3.853479862	9.781177521	-31.66425705	1.0
24	80.77799988	-4.887000084	-38.06099701	-3.857002735	9.04763031	-34.04265594	1.0
25	80.77799988	-4.887000084	-38.06099701	-3.850879431	8.421902657	-36.05856705	1.0
26	80.77799988	-4.887000084	-38.06099701	-3.840664148	8.003684044	-37.39891434	1.0
[LeftHandPinky2]
23	36	0	0	4.891852379	-4.467552662	-44.48104477	1.0
24	36	0	0	5.328056335	-4.256392479	-47.61119461	1.0
25	36	0	0	5.689495564	-4.058645248	-50.27157593	1.0
26	36	0	0	5.925201893	-3.915905476	-52.05315018	1.0
[LeftHandPinky3]
23	21.14200211	0	0	3.226109357e-06	2.925280342e-06	-5.739977951e-06	1.0
24	21.14200211	0	0	3.226109357e-06	2.925280342e-06	-5.739977951e-06	1.0
25	21.14200211	0	0	3.226109357e-06	2.925280342e-06	-5.739977951e-06	1.0
26	21.14200211	0	0	3.226109357e-06	2.925280342e-06	-5.739977951e-06	1.0
[LeftHandPinky4]
23	19.75699997	0	0	0	0	0	1.0
24	19.75699997	0	0	0	0	0	1.0
25	19.75699997	0	0	0	0	0	1.0
26	19.75699997	0	0	0	0	0	1.0
[RightShoulder]
23	-45.70000076	109.4620056	-26.28000069	0.6445826292	1.993468046	9.535203934	1.0
24	-45.70000076	109.4620056	-26.28000069	0.5774071813	1.528149009	9.491128922	1.0
25	-45.70000076	109.4620056	-26.28000069	0.5706607103	1.142559648	9.673893929	1.0
26	-45.70000076	109.4620056	-26.28000069	0.5786640644	1.457184076	9.559223175	1.0
[RightArm]
23	-105.9280014	-5.248000145	-22.32099915	42.20591354	48.76528549	58.43452835	1.0
24	-105.9280014	-5.248000145	-22.32099915	39.42778397	52.00769806	59.93011856	1.0
25	-105.9280014	-5.248000145	-22.32099915	35.03722763	52.62468719	59.9635849	1.0
26	-105.9280014	-5.248000145	-22.32099915	30.5283699	50.64125824	56.75127792	1.0
[RightForeArm]
23	-278.414978	0	0	0.08822669834	83.20391083	1.353559375	1.0
24	-278.414978	0	0	-3.124754667	87.9477005	-1.76413095	1.0
25	-278.414978	0	0	-6.361462593	89.37269592	-5.027820587	1.0
26	-278.414978	0	0	-1.248229384	86.26509857	0.08182696253	1.0
[RightHand]
23	-283.2879944	0	0.0009999999311	29.16569901	13.63531303	-1.743744969	1.0
24	-283.2879944	0	0.0009999999311	28.51179314	12.98499012	0.3055924177	1.0
25	-283.2879944	0	0.0009999999311	26.57664108	12.26901722	0.8609081507	1.0
26	-283.2879944	0	0.0009999999311	25.58975792	13.56971073	1.051480174	1.0
[RightHandPinky1]
23	-80.76699829	-4.885000229	-38.06000137	-0.8210124373	-9.38128376	34.91565323	1.0
24	-80.76699829	-4.885000229	-38.06000137	-0.8436703682	-8.487055779	38.5255661	1.0
25	-80.76699829	-4.885000229	-38.06000137	-0.8409678936	-7.722727299	41.5847702	1.0
26	-80.76699829	-4.885000229	-38.06000137	-0.8253107071	-7.211479187	43.61942673	1.0
[RightHandPinky2]
23	-36	0	0.0009999999311	5.625118256	6.700413227	43.37520599	1.0
24	-36	0	0.0009999999311	6.110659122	6.631449699	46.08942032	1.0
25	-36	0	0.0009999999311	6.520610809	6.555217266	48.39781952	1.0
26	-36	0	0.0009999999311	6.792868137	6.494003296	49.94545364	1.0
[RightHandPinky3]
23	-21.14200211	0	0	-1.590277359e-15	0	-7.951386796e-16	1.0
24	-21.14200211	0	0	-1.590277359e-15	0	-7.951386796e-16	1.0
25	-21.14200211	0	0	-1.590277359e-15	0	-7.951386796e-16	1.0
26	-21.14200211	0	0	-1.590277359e-15	0	-7.951386796e-16	1.0
[RightHandPinky4]
23	-19.75699997	0	0	0	0	0	1.0
24	-19.75699997	0	0	0	0	0	1.0
25	-19.75699997	0	0	0	0	0	1.0
26	-19.75699997	0	0	0	0	0	1.0
[RightHandRing1]
23	-91.03599548	-0.4390000105	-18.65100098	-1.828541279	-5.265462399	34.33755112	1.0
24	-91.03599548	-0.4390000105	-18.65100098	-1.97151792	-4.945273399	37.67726135	1.0
25	-91.03599548	-0.4390000105	-18.65100098	-2.073700666	-4.668868542	40.51080704	1.0
26	-91.03599548	-0.4390000105	-18.65100098	-2.130847454	-4.482533932	42.39839554	1.0
[RightHandRing2]
23	-31.54000092	0	0	1.986289024	3.256120443	33.53919601	1.0
24	-31.54000092	0	0	2.426792383	3.475206852	38.1049614	1.0
25	-31.54000092	0	0	2.813581467	3.63408947	41.98337555	1.0
26	-31.54000092	0	0	3.077589512	3.723843098	44.5694313	1.0
[RightHandRing3]
23	-29.37700081	0	0	5.740008078e-07	-7.531911024e-07	-2.69121324e-06	1.0
24	-29.37700081	0	0	5.740008078e-07	-7.531911024e-07	-2.69121324e-06	1.0
25	-29.37700081	0	0	5.740008078e-07	-7.531911024e-07	-2.69121324e-06	1.0
26	-29.37700081	0	0	5.740008078e-07	-7.531911024e-07	-2.69121324e-06	1.0
[RightHandRing4]
23	-26.47500038	0	0	0	0	0	1.0
24	-26.47500038	0	0	0	0	0	1.0
25	-26.47500038	0	0	0	0	0	1.0
26	-26.47500038	0	0	0	0	0	1.0
[RightHandMiddle1]
23	-95.32500458	0	0	-2.140202045	0.573579967	22.60028839	1.0
24	-95.32500458	0	0	-2.245466232	0.7822705507	24.35879517	1.0
25	-95.32500458	0	0	-2.329962492	0.9618884325	25.85157394	1.0
26	-95.32500458	0	0	-2.383441448	1.082947612	26.8464241	1.0
[RightHandMiddle2]
23	-36.98199844	0	0	-0.830052793	2.185609102	31.0152626	1.0
24	-36.98199844	0	0	-0.9206423163	2.803422928	36.883564	1.0
25	-36.98199844	0	0	-0.9489135742	3.333538532	41.86754608	1.0
26	-36.98199844	0	0	-0.9394834042	3.687411547	45.19100952	1.0
[RightHandMiddle3]
23	-29.50900078	0	0	1.856611448e-06	-0.002022909233	1.577868488e-06	1.0
24	-29.50900078	0	0	1.856611448e-06	-0.002022909233	1.577868488e-06	1.0
25	-29.50900078	0	0	1.856611448e-06	-0.002022909233	1.577868488e-06	1.0
26	-29.50900078	0	0	1.856611448e-06	-0.002022909233	1.577868488e-06	1.0
[RightHandMiddle4]
23	-28.3390007	0	0.0009999999311	0	0	0	1.0
24	-28.3390007	0	0.0009999999311	0	0	0	1.0
25	-28.3390007	0	0.0009999999311	0	0	0	1.0
26	-28.3390007	0	0.0009999999311	0	0	0	1.0
[RightHandIndex1]
23	-91.08300018	-5.167999744	22.60099792	-1.414803743	1.557723761	12.71754742	1.0
24	-91.08300018	-5.167999744	22.60099792	-1.521664023	1.879458904	14.34783077	1.0
25	-91.08300018	-5.167999744	22.60099792	-1.608738899	2.155421734	15.73131561	1.0
26	-91.08300018	-5.167999744	22.60099792	-1.664478183	2.340893507	16.65309334	1.0
[RightHandIndex2]
23	-36.76399994	0	0	-0.8572649956	0.008717417717	26.88037491	1.0
24	-36.76399994	0	0	-1.063937068	0.4850534201	30.92729187	1.0
25	-36.76399994	0	0	-1.213441372	0.9000796676	34.36211395	1.0
26	-36.76399994	0	0	-1.297775745	1.181851983	36.6510849	1.0
[RightHandIndex3]
23	-28.83100128	0	0	-3.180554719e-15	0	0	1.0
24	-28.83100128	0	0	-3.180554719e-15	0	0	1.0
25	-28.83100128	0	0	-3.180554719e-15	0	0	1.0
26	-28.83100128	0	0	-3.180554719e-15	0	0	1.0
[RightHandIndex4]
23	-23.92700005	0	0	0	0	0	1.0
24	-23.92700005	0	0	0	0	0	1.0
25	-23.92700005	0	0	0	0	0	1.0
26	-23.92700005	0	0	0	0	0	1.0
[RightHandThumb1]
23	-24.64799881	-15.72700024	26.82600021	-7.135009766	-1.769202471	-10.80922413	1.0
24	-24.64799881	-15.72700024	26.82600021	-7.381083012	-2.654638767	-10.70520115	1.0
25	-24.64799881	-15.72700024	26.82600021	-7.578168392	-3.397413492	-10.62018394	1.0
26	-24.64799881	-15.72700024	26.82600021	-7.685675144	-3.874825001	-10.58349609	1.0
[RightHandThumb2]
23	-32.29800034	-18.64699936	18.64699936	7.503283501	-13.11742592	-5.61707449	1.0
24	-32.29800034	-18.64699936	18.64699936	9.466291428	-15.73982334	-7.463759422	1.0
25	-32.29800034	-18.64699936	18.64699936	11.1741724	-17.94526482	-9.144133568	1.0
26	-32.29800034	-18.64699936	18.64699936	12.34423447	-19.40098953	-10.3053112	1.0
[RightHandThumb3]
23	-26.52600098	-15.31399918	15.31399918	-3.81245151e-08	-0.00121095567	-0.001221005921	1.0
24	-26.52600098	-15.31399918	15.31399918	-3.81245151e-08	-0.00121095567	-0.001221005921	1.0
25	-26.52600098	-15.31399918	15.31399918	-3.81245151e-08	-0.00121095567	-0.001221005921	1.0
26	-26.52600098	-15.31399918	15.31399918	-3.81245151e-08	-0.00121095567	-0.001221005921	1.0
[RightHandThumb4]
23	-19.54599953	-11.28499985	11.28499985	0	0	0	1.0
24	-19.54599953	-11.28499985	11.28499985	0	0	0	1.0
25	-19.54599953	-11.28499985	11.28499985	0	0	0	1.0
26	-19.54599953	-11.28499985	11.28499985	0	0	0	1.0
[LeftUpLeg]
23	82.07800293	-67.51699829	-15.99599934	-42.60056305	14.65284157	4.144189358	1.0
24	82.07800293	-67.51699829	-15.99599934	-39.47264099	14.36084366	3.162851334	1.0
25	82.07800293	-67.51699829	-15.99599934	-36.71065903	14.34794903	2.696098089	1.0
26	82.07800293	-67.51699829	-15.99599934	-34.51626205	14.57151985	2.403116226	1.0
[LeftLeg]
23	0	-443.7049866	2.845999956	35.45720291	-5.421117783	-3.450056076	1.0
24	0	-443.7049866	2.845999956	36.57040024	-4.470925808	-3.35807991	1.0
25	0	-443.7049866	2.845999956	40.50814056	-3.202491045	-3.412475348	1.0
26	0	-443.7049866	2.845999956	44.83288574	-1.720141292	-3.279959202	1.0
[LeftFoot]
23	0	-444.2789917	-29.8219986	7.017825127	3.231964827	-29.11179733	1.0
24	0	-444.2789917	-29.8219986	4.231903076	2.199019194	-25.16958427	1.0
25	0	-444.2789917	-29.8219986	0.4520513713	1.111768246	-20.45645332	1.0
26	0	-444.2789917	-29.8219986	-2.291707754	0.5069307685	-17.17214775	1.0
[LeftToeBase]
23	0	-87.28699493	107.1060028	4.653177261	1.551537252e-06	9.280049198e-06	1.0
24	0	-87.28699493	107.1060028	4.214189529	1.475971544e-06	2.325159585e-06	1.0
25	0	-87.28699493	107.1060028	2.978965521	-3.265058126e-07	-7.522460237e-06	1.0
26	0	-87.28699493	107.1060028	2.452231407	1.302577743e-06	-7.938162412e-07	1.0
[RightUpLeg]
23	-82.07800293	-67.51699829	-15.99599934	-26.01926231	-13.79598713	-2.258699656	1.0
24	-82.07800293	-67.51699829	-15.99599934	-22.4054203	-14.1059351	-2.490279436	1.0
25	-82.07800293	-67.51699829	-15.99599934	-21.33637238	-13.64699078	-3.271496773	1.0
26	-82.07800293	-67.51699829	-15.99599934	-21.60955429	-12.68036652	-4.268083096	1.0
[RightLeg]
23	0	-443.7049866	2.861999989	51.41624451	-14.14480495	-16.45599556	1.0
24	0	-443.7049866	2.861999989	42.6734848	-13.46366596	-11.25872517	1.0
25	0	-443.7049866	2.861999989	38.05023575	-8.78970623	-5.116001606	1.0
26	0	-443.7049866	2.861999989	36.52814102	-8.657644272	-5.382242203	1.0
[RightFoot]
23	0	-444.2770081	-29.83799934	-24.3950386	-2.528462172	8.614746094	1.0
24	0	-444.2770081	-29.83799934	-15.71186829	-4.526612759	8.745518684	1.0
25	0	-444.2770081	-29.83799934	-4.454033852	-5.788327694	13.4265728	1.0
26	0	-444.2770081	-29.83799934	2.547590256	-5.368353367	20.94068527	1.0
[RightToeBase]
23	0	-87.28699493	107.1060028	-8.511897087	1.243020233e-05	-2.27152168e-06	1.0
24	0	-87.28699493	107.1060028	-11.20006657	0.02715169266	0.1422348619	1.0
25	0	-87.28699493	107.1060028	-13.81248951	-0.09501817822	-0.4978267848	1.0
26	0	-87.28699493	107.1060028	-12.60420036	-0.565572381	-2.963238716	1.0
[EndOfFile]
